<svg xmlns="http://www.w3.org/2000/svg" viewBox="0 0 720 420">
  <rect width="720" height="420" rx="28" fill="#f7f2e8"/>
  <rect y="280" width="720" height="140" fill="#d7c8a8"/>
  <rect x="470" y="78" width="180" height="112" rx="14" fill="#1b2a25"/>
  <rect x="488" y="96" width="144" height="76" rx="10" fill="#d88e2b"/>
  <rect x="552" y="190" width="18" height="92" fill="#1b2a25"/>
  <rect x="62" y="188" width="238" height="146" rx="18" fill="#0f5d46"/>
  <rect x="84" y="210" width="194" height="102" rx="12" fill="#e6efe9"/>
  <circle cx="132" cy="256" r="24" fill="#d88e2b"/>
  <rect x="186" y="240" width="64" height="12" rx="6" fill="#0f5d46"/>
  <rect x="186" y="264" width="44" height="12" rx="6" fill="#0f5d46"/>
  <circle cx="580" cy="68" r="34" fill="#d88e2b"/>
  <path d="M0 280 C120 230, 240 235, 360 280 C480 320, 600 318, 720 280" fill="#c0b08f"/>
</svg>
